PathFileType	4	(X/Y/Z)	Patient4_TMGait_0pt4_02_left_39.trc.trc
DataRate	CameraRate	NumFrames	NumMarkers	Units	OrigDataRate	OrigDataStartFrame	OrigNumFrames
78.651685393258	78.651685393258	6	33	mm	78.651685393258	18	       141
Frame#	Time	Sacral			L.Shoulder			Chest			R.Shoulder			Neck			R.ASIS			L.ASIS			R.Thigh.Superior			R.Thigh.Lateral			R.Thigh.Inferior			R.Patella			L.Thigh.Superior			L.Thigh.Lateral			L.Thigh.Inferior			L.Patella			L.Shank.Superior			L.Shank.Lateral			L.Shank.Inferior			R.Shank.Superior			R.Shank.Lateral			R.Shank.Inferior			R.Heel			R.Midfoot.Superior			R.Midfoot.Lateral			R.Toe			L.Heel			L.Midfoot.Lateral			L.Midfoot.Superior			L.Toe			L.Elbow			L.Wrist			R.Elbow			R.Wrist			
		X1	Y1	Z1	X2	Y2	Z2	X3	Y3	Z3	X4	Y4	Z4	X5	Y5	Z5	X6	Y6	Z6	X7	Y7	Z7	X8	Y8	Z8	X9	Y9	Z9	X10	Y10	Z10	X11	Y11	Z11	X12	Y12	Z12	X13	Y13	Z13	X14	Y14	Z14	X15	Y15	Z15	X16	Y16	Z16	X17	Y17	Z17	X18	Y18	Z18	X19	Y19	Z19	X20	Y20	Z20	X21	Y21	Z21	X22	Y22	Z22	X23	Y23	Z23	X24	Y24	Z24	X25	Y25	Z25	X26	Y26	Z26	X27	Y27	Z27	X28	Y28	Z28	X29	Y29	Z29	X30	Y30	Z30	X31	Y31	Z31	X32	Y32	Z32	X33	Y33	Z33	

18	52.336142857143	824.893309838833	1013.465594644282	567.569127083245	985.120416740632	1432.818491088957	358.471931943233	1118.087697841985	1358.422377219707	493.037919242247	1080.384541675120	1435.695352266576	680.742997538203	1004.047490637806	1494.706741410463	514.082066544999	1066.994732973283	932.761952079748	635.597487420081	1003.389626988428	969.773095656194	369.323436344426	1072.891238928551	726.101698466308	601.534974821634	986.159647824081	627.942447546655	676.821300947758	1041.185427998271	566.541180740625	588.254873993931	1028.321741419139	480.632805847141	597.036051999708	1079.057239350676	780.538067684572	385.746090174874	1019.992694625536	656.426603620655	310.455728816838	1124.860637717674	592.656465847898	362.538719145722	1150.181619107269	530.722538751824	356.324130051282	1134.375158326506	460.453213087392	343.708814899812	1069.267293940319	331.616756330139	289.440050941972	1160.341876930772	232.034127178920	336.932347390179	991.792374750456	394.996228002765	608.171679000532	913.920402455780	300.313461573580	675.885790152507	938.914376509791	201.138259134896	611.523237972379	789.214800783683	43.452471513203	590.472329450305	960.390563123002	95.791756650352	622.725319202127	872.924453180038	36.825597382697	664.333958339277	1081.139898806809	42.440500858396	651.615210461586	1084.010778058301	48.292859183490	371.547230654372	1155.549242222598	57.368248734155	289.945872329026	1222.805417524270	138.710939926219	310.871201563840	1356.761894912076	117.032283011779	280.089917472483	901.626847598899	1090.420138043233	240.785771129130	981.201642995805	841.564583564578	202.957093561521	1173.942294654162	1098.439881608928	786.564075280144	1392.067347735105	1050.099601570514	665.245835956414	
19	52.348857142857	825.366121535035	1012.614194740449	565.513443307032	984.079754435281	1432.284487013435	356.584596686894	1117.262606292168	1358.281381292111	491.148113676698	1079.285113878188	1435.414738110167	678.825940577855	1002.891986237567	1494.207037003294	512.212450287642	1067.436011581779	932.335171730785	634.003773000193	1004.097948463756	968.772131353313	367.513441994887	1071.484368163253	725.149029819812	600.274140337171	983.943056493516	627.558381926876	675.838371862990	1038.420995652734	565.586224033845	587.451366678046	1024.954800438413	479.966579661113	596.333207927580	1079.663525582632	779.114296240692	383.216456469426	1018.350664838964	654.143914797840	310.139820819809	1123.932472479230	590.773464642259	360.771091280376	1148.428927769895	528.246016395407	355.264727175938	1131.871813616721	457.545920576641	343.520890195012	1064.596956930027	329.185582256205	291.023961651686	1154.923446238864	228.895472115238	338.221186432669	987.935937792575	394.455154617962	607.563090832254	909.758223856633	300.289424058724	675.606961649125	934.230159438688	200.896963709209	611.320630259037	784.060961055103	43.398192794440	590.474127958854	955.249057094524	95.779941193254	622.766025481352	867.764749689278	36.776374514331	664.372757826653	1075.955507871347	42.456979786264	651.617381277718	1076.386104025241	47.033593564956	374.833803883980	1147.145607393904	54.408050870208	292.446833994019	1216.072146574521	134.442961821119	312.242206690725	1349.188853794268	110.117406863020	280.157284707709	901.355601063075	1089.852710871611	238.641854376418	982.649945732153	841.545028740285	200.664487981521	1174.839431043141	1097.779418825257	781.449893420009	1391.948799081735	1053.762302889069	657.187365529230	
20	52.361571428571	826.044211464546	1011.602895897432	563.151045489176	983.131625436982	1431.623877797895	354.456928434753	1116.468145421668	1358.119691252324	489.129251048617	1078.008556098951	1435.055816015506	676.768842011240	1001.691048336606	1493.600029579768	510.137777493794	1068.067032936647	931.850919268148	632.338153283794	1005.187393464797	967.594320546111	365.599242338069	1070.295739786339	724.134548382211	599.055282306186	981.852820147808	627.118795626286	674.792223302154	1035.866929229794	564.572213268389	586.651883772832	1021.780923814814	479.219768760115	595.614451537445	1080.480772553661	777.327548186422	380.770791264394	1016.909043217608	651.643139311114	309.867067071342	1123.009379057412	588.539856040810	359.287848493925	1146.470927444011	525.250751995329	354.560866320410	1129.037351089839	454.100598169361	343.599551271100	1059.250580702538	326.427025228942	292.812504612771	1148.459278157632	225.162695642162	339.857394134405	984.217462357785	393.848799860945	606.933754270735	905.683714131212	300.256081622975	675.326734132087	929.594656428385	200.622422695960	611.124197464555	778.907491322233	43.328569875823	590.485089662103	950.103354303373	95.759739468298	622.810407813213	862.605991554413	36.714529319026	664.419966531552	1070.775417459201	42.455366065549	651.626381655901	1067.056475751700	45.541622223866	378.236753624842	1137.170878353343	51.113499488200	295.170249604071	1208.027948611866	129.455417113809	314.126531860441	1340.251154526573	101.984638679234	280.900166478011	901.274788569120	1089.129706689107	236.292961429403	984.300705440280	841.373052855587	198.265986924986	1175.191669477452	1096.950478303029	776.318055630544	1391.224123464615	1056.669659919879	649.340082409197	
21	52.374285714286	826.896377933454	1010.454091022720	560.503990183355	982.301192541114	1430.838688098806	352.084555233099	1115.722724639915	1357.931368406399	486.977013341733	1076.584789389822	1434.615273359696	674.569486980634	1000.475819336268	1492.895946901265	507.853753823338	1068.870230541154	931.303747473806	630.596593817663	1006.615289200394	966.285363231397	363.591274300893	1069.389496085652	723.063391770391	597.869773840680	979.957899787680	626.616537941896	673.647491313055	1033.603370604595	563.501942025470	585.816704267204	1018.875176554430	478.369710536712	594.825375882996	1081.437179209813	775.184160678001	378.466962466533	1015.642893992036	649.006399993876	309.600642397744	1122.028297837193	585.992737870762	358.134699942951	1144.267398518653	521.846214306469	354.247670685316	1125.931357309551	450.286293690597	343.911171343914	1053.519962811525	323.438598724903	294.671860263097	1141.342335322890	221.054387485544	341.749944355314	980.711343036216	393.171577997672	606.246800716157	901.754706241703	300.216828469653	675.015054168558	925.038283620159	200.313099058661	610.911529703821	773.757481715173	43.264083350876	590.508544316206	944.958632500832	95.732970927615	622.846737034417	857.453056036920	36.651511246808	664.471322995098	1065.605687767787	42.426554569208	651.643960787174	1056.638522134415	43.934163675379	381.561583701692	1126.287268180495	47.719016509540	297.966132048583	1199.215835811065	124.047195929924	316.456802545257	1330.536725267628	93.105264195882	282.336949834031	901.399574362274	1088.247582982950	233.749446710530	986.123663625654	841.033236400389	195.754328586153	1175.006918354257	1095.940222458876	771.216908696506	1389.938453202688	1058.770356475633	641.747634176796	
22	52.387000000000	827.880326861042	1009.207038510735	557.606375191664	981.612021268298	1429.947973127923	349.471194444493	1115.045433648824	1357.721147215106	484.689922294845	1075.055725332438	1434.106771318064	672.227684561113	999.281627500169	1492.121473795130	505.361609494620	1069.815573504536	930.700732283560	628.767316471649	1008.315703516322	964.915514010267	361.497431394959	1068.817187982083	721.953045853427	596.690586425252	978.326709863416	626.054804871756	672.366430972109	1031.704574895587	562.386858806302	584.899013399112	1016.310377938629	477.400122980216	593.908242768492	1082.472403797995	772.746147601098	376.344559674064	1014.550108008528	646.348582526814	309.295770097645	1120.969031296204	583.229062244198	357.329400895424	1141.844451523493	518.200267119079	354.309638932672	1122.664196873908	446.314586299506	344.392550607473	1047.731196566440	320.359077553543	296.450646882748	1133.993284645245	216.822535054632	343.776086395516	977.491893331086	392.428091860790	605.463431085319	898.029937937599	300.184035300436	674.638862502285	920.592361833642	199.978190240942	610.659824815731	768.615469236856	43.240630340768	590.548707366500	939.825893211537	95.706899865185	622.866524296630	852.313190248402	36.607169638782	664.521941135113	1060.453865263306	42.360301343231	651.671323554714	1045.776305838531	42.342685121798	384.629328599514	1115.154171705914	44.466970720946	300.672580245724	1190.176188433476	118.553917637994	319.105971318295	1320.626302154116	84.008601624064	284.372427570157	901.752361792135	1087.219095313995	231.026462520713	988.088003563541	840.523378476864	193.125848937593	1174.298654513355	1094.753088171867	766.195344003576	1388.133742946872	1060.014359942784	634.449412560374	
23	52.399714285714	828.945753289405	1007.916876897594	554.502911167854	981.082709341395	1428.989065681808	346.631009206287	1114.454637341861	1357.504791777745	482.269835625035	1073.475339227057	1433.561585582020	669.745742514045	998.145409451964	1491.318828837360	502.670013459763	1070.861078028142	930.063322548044	626.830574702092	1010.202107576150	963.574375958237	359.320032911730	1068.608558175368	720.834989624175	595.471909038715	977.021970673498	625.448521433694	670.913752434312	1030.234016046404	561.248782256814	583.850239033497	1014.157510714202	476.304000266564	592.812071391076	1083.539415336111	770.132112278422	374.422624714070	1013.660536786427	643.810533452930	308.897994192879	1119.859699890104	580.400859250818	356.856301530983	1139.293736111300	514.524763286144	354.680560920795	1119.388543289938	442.417634588016	344.956444767871	1042.214350998405	317.355056367141	297.988695588028	1126.815619276382	212.724265288185	345.791602643978	974.628500154424	391.632791963899	604.548753344716	894.565482788362	300.180234193842	674.166738865828	916.288689018403	199.638772069667	610.349740024593	763.487939961572	43.310940301640	590.610543886561	934.722871027902	95.694000941200	622.865775476776	847.196296790480	36.610069150630	664.567061840715	1055.328973959384	42.246388340509	651.708901054050	1035.074152845127	40.891234211213	387.292573801672	1104.362722447292	41.571685277441	303.133991426832	1181.388462685475	113.310705667359	321.897831631314	1311.033830559828	75.230884220025	286.814346674124	902.359978901692	1086.075657986875	228.143991933298	990.164104393242	839.858018354845	190.381520097207	1173.085603454498	1093.413812678669	761.302408736028	1385.845798418656	1060.352661412465	627.481003357913	
